0
SECTION
2
HEADER
9
$INSUNITS
70
4
9
$ACADVER
1
AC1014
9
$HANDSEED
5
FFFF
0
ENDSEC
0
SECTION
2
TABLES
0
TABLE
2
VPORT
5
8
100
AcDbSymbolTable
0
ENDTAB
0
TABLE
2
LTYPE
5
5
100
AcDbSymbolTable
0
LTYPE
5
14
100
AcDbSymbolTableRecord
100
AcDbLinetypeTableRecord
2
BYBLOCK
70
0
0
LTYPE
5
15
100
AcDbSymbolTableRecord
100
AcDbLinetypeTableRecord
2
BYLAYER
70
0
0
ENDTAB
0
TABLE
2
LAYER
5
2
100
AcDbSymbolTable
70
2
0
LAYER
5
50
100
AcDbSymbolTableRecord
100
AcDbLayerTableRecord
2
0
70
0
6
CONTINUOUS
0
ENDTAB
0
TABLE
2
STYLE
5
3
100
AcDbSymbolTable
70
1
0
STYLE
5
11
100
AcDbSymbolTableRecord
100
AcDbTextStyleTableRecord
2
STANDARD
70
0
0
ENDTAB
0
TABLE
2
VIEW
5
6
100
AcDbSymbolTable
70
0
0
ENDTAB
0
TABLE
2
UCS
5
7
100
AcDbSymbolTable
70
0
0
ENDTAB
0
TABLE
2
APPID
5
9
100
AcDbSymbolTable
70
2
0
APPID
5
12
100
AcDbSymbolTableRecord
100
AcDbRegAppTableRecord
2
ACAD
70
0
0
ENDTAB
0
TABLE
2
DIMSTYLE
5
A
100
AcDbSymbolTable
70
1
0
ENDTAB
0
TABLE
2
BLOCK_RECORD
5
1
100
AcDbSymbolTable
70
1
0
BLOCK_RECORD
5
1F
100
AcDbSymbolTableRecord
100
AcDbBlockTableRecord
2
*MODEL_SPACE
0
BLOCK_RECORD
5
1B
100
AcDbSymbolTableRecord
100
AcDbBlockTableRecord
2
*PAPER_SPACE
0
ENDTAB
0
ENDSEC
0
SECTION
2
BLOCKS
0
BLOCK
5
20
100
AcDbEntity
100
AcDbBlockBegin
2
*MODEL_SPACE
0
ENDBLK
5
21
100
AcDbEntity
100
AcDbBlockEnd
0
BLOCK
5
1C
100
AcDbEntity
100
AcDbBlockBegin
2
*PAPER_SPACE
0
ENDBLK
5
1D
100
AcDbEntity
100
AcDbBlockEnd
0
ENDSEC
0
SECTION
2
ENTITIES
0
LWPOLYLINE
5
100
100
AcDbEntity
8
0
100
AcDbPolyline
90
28
70
1
43
0.0
10
-156.39581443049985
20
117.31401829088244
10
-156.39581443049988
20
115.89529427384591
10
-170.89581443049974
20
115.89529427384592
10
-170.89581443049974
20
124.52020203200053
10
-156.39581443049985
20
124.52020203200053
10
-156.39581443049985
20
123.31401829088247
10
-148.89241592345127
20
123.31401829088247
10
-148.89241592345127
20
128.64148755960213
10
-136.89241592345127
20
128.64148755960213
10
-136.89241592345127
20
125.31401829088246
10
-128.65596032631112
20
125.31401829088246
42
-0.24063006899690978
10
-122.57915545017158
20
128.41828826080476
10
-96.72678889842598
20
128.41828826080476
10
-96.726788898425951
20
140.54135060697726
42
0.41421356237309509
10
-101.72678889842594
20
145.54135060697723
10
-182.62413485365741
20
145.54135060697735
42
0.33891398039088461
10
-186.32068157207146
20
140.71423868133039
10
-186.32068157207146
20
99.701257624516089
42
0.33891398039087667
10
-182.62413485365755
20
94.874145698869171
10
-101.72678889842598
20
94.8741456988691
42
0.41421356237309404
10
-96.72678889842598
20
99.874145698869086
10
-96.72678889842598
20
112.41828826080479
10
-122.57915545017161
20
112.41828826080477
42
-0.23145548804513058
10
-128.49951844952153
20
115.31401829088246
10
-136.89241592345127
20
115.31401829088246
10
-136.89241592345127
20
111.64148755960213
10
-148.89241592345127
20
111.64148755960213
10
-148.89241592345127
20
117.31401829088244
0
CIRCLE
5
101
100
AcDbEntity
8
0
100
AcDbCircle
10
-181.78106118344741
20
102.74247324505961
30
0
40
1.4999999999999969
0
CIRCLE
5
102
100
AcDbEntity
8
0
100
AcDbCircle
10
-103.03545765577516
20
102.74247324505963
30
0
40
1.5000000000000013
0
CIRCLE
5
103
100
AcDbEntity
8
0
100
AcDbCircle
10
-181.78106118344741
20
137.74247324505959
30
0
40
1.4999999999999969
0
CIRCLE
5
104
100
AcDbEntity
8
0
100
AcDbCircle
10
-102.91043836152282
20
137.74247324505961
30
0
40
1.4999999999999991
0
LWPOLYLINE
5
105
100
AcDbEntity
8
0
100
AcDbPolyline
90
22
70
1
43
0.0
10
-22.954134745450574
20
-4.1607507041610958
10
-22.977487680879136
20
-12.935911235592883
10
-12.977523092068637
20
-12.96252368632743
10
-12.977523092068637
20
-3.591009127991871
10
-4.9775258498677388
20
-3.5843664796760422
10
-4.9674439585979968
20
-13.441545549562584
10
152.99276166402248
20
-13.44154554956253
10
153.00284355529217
20
-3.5843664796759889
10
161.00284079749318
20
-3.5910091279917999
10
161.00284079749318
20
-12.962523686327359
10
171.00280538630375
20
-12.935911235592812
10
170.97975660515772
20
-4.2750405183728564
42
0.31049172122372776
10
161.63656999095207
20
9.2430466381757981
10
121.73773646159829
20
24.439826820493078
42
-0.22598795392937404
10
112.82821742804754
20
33.769453593740479
10
99.455394828847275
20
83.595323576546264
42
0.33933930855269634
10
95.592118704193439
20
86.55845445043667
10
50.933907905809264
20
86.558454450436642
42
0.34724913638568883
10
47.042835873136077
20
83.485578194360883
10
35.196737850656525
20
33.768352189044052
42
-0.22861377117921258
10
26.146231753686919
20
24.386802178588951
10
-13.151916755818544
20
9.8699956483986071
42
0.31325259425775237
0
CIRCLE
5
106
100
AcDbEntity
8
0
100
AcDbCircle
10
74.021843140231809
20
12.668643706593308
30
0
40
2.0000000000000009
0
CIRCLE
5
107
100
AcDbEntity
8
0
100
AcDbCircle
10
56.547383944848768
20
72.003693614923222
30
0
40
1.4999999999999971
0
CIRCLE
5
108
100
AcDbEntity
8
0
100
AcDbCircle
10
56.547383944848839
20
-6.8669099127484223
30
0
40
1.5000000000000018
0
CIRCLE
5
109
100
AcDbEntity
8
0
100
AcDbCircle
10
91.547383944848519
20
72.003693614923236
30
0
40
1.4999999999999971
0
CIRCLE
5
110
100
AcDbEntity
8
0
100
AcDbCircle
10
91.547383944848548
20
-6.9919292070007266
30
0
40
1.4999999999999996
0
LWPOLYLINE
5
111
100
AcDbEntity
8
0
100
AcDbPolyline
90
22
70
1
43
0.0
10
-80.072681542776408
20
143.64537254707506
10
-90.072646131586993
20
143.61876009634051
10
-90.049293196158416
20
134.84359956490869
42
0.31325259425775048
10
-80.247075206526347
20
120.81285321234898
10
-40.948926697020703
20
106.29604668215859
42
-0.22861377117921172
10
-31.898420600051036
20
96.914496671703461
10
-20.052322577571481
20
47.197270666386459
42
0.34724913638569133
10
-16.16125054489828
20
44.124394410310714
10
28.496960253485994
20
44.124394410310714
42
0.33933930855269773
10
32.36023637813993
20
47.087525284201149
10
45.733058977340207
20
96.913395267007132
42
-0.22598795392937321
10
54.642578010891043
20
106.24302204025457
10
94.54141154024498
20
121.43980222257191
42
0.31049172122372498
10
103.8845981544506
20
134.95788937912062
10
103.90764693559653
20
143.61876009634059
10
93.907682346786032
20
143.64537254707514
10
93.907682346786032
20
134.27385798873956
10
85.907685104585028
20
134.26721534042375
10
85.89760321331525
20
144.12439441031034
10
-72.062602409305754
20
144.12439441031023
10
-72.07268430057546
20
134.26721534042366
10
-80.072681542776408
20
134.27385798873951
0
CIRCLE
5
112
100
AcDbEntity
8
0
100
AcDbCircle
10
24.452225494141047
20
58.679155245824262
30
0
40
1.4999999999999969
0
CIRCLE
5
113
100
AcDbEntity
8
0
100
AcDbCircle
10
6.9266846895243717
20
118.01420515415433
30
0
40
2
0
CIRCLE
5
114
100
AcDbEntity
8
0
100
AcDbCircle
10
-10.547774505858687
20
137.54975877349608
30
0
40
1.5000000000000013
0
LWPOLYLINE
5
115
100
AcDbEntity
8
0
100
AcDbPolyline
90
4
70
1
43
0.0
10
8.4799542810818096
20
75.314401998771814
10
5.479954281081838
20
75.314401998771814
10
5.479954281081838
20
79.314401998771771
10
8.4799542810818096
20
79.314401998771771
0
CIRCLE
5
116
100
AcDbEntity
8
0
100
AcDbCircle
10
-10.547774505858722
20
58.679155245824255
30
0
40
1.4999999999999969
0
CIRCLE
5
117
100
AcDbEntity
8
0
100
AcDbCircle
10
24.452225494141082
20
137.67477806774843
30
0
40
1.4999999999999989
0
LWPOLYLINE
5
118
100
AcDbEntity
8
0
100
AcDbPolyline
90
12
70
1
43
0.0
10
152.55112834800596
20
94.498637565219212
10
162.55112834800593
20
94.498637565219212
10
162.55112834800596
20
139.99863756521896
10
152.55112834800599
20
139.99863756521896
10
152.55112834800599
20
136.99863756521896
10
127.55112834800613
20
136.99863756521898
10
127.55112834800613
20
139.99863756521898
10
117.5511283480062
20
139.99863756521898
10
117.55112834800616
20
94.498637565219227
10
127.5511283480061
20
94.498637565219198
10
127.55112834800613
20
97.498637565219198
10
152.55112834800596
20
97.498637565219241
0
LWPOLYLINE
5
119
100
AcDbEntity
8
0
100
AcDbPolyline
90
12
70
1
43
0.0
10
-49.630462863258316
20
41.934349355901581
10
-39.630462863258437
20
41.934349355901581
10
-39.630462863258437
20
87.434349355901091
10
-49.630462863258316
20
87.434349355901091
10
-49.630462863258316
20
84.434349355901048
10
-74.630462863258018
20
84.434349355901119
10
-74.630462863258018
20
87.434349355901091
10
-84.630462863257904
20
87.434349355901091
10
-84.630462863257861
20
41.934349355901581
10
-74.630462863257975
20
41.934349355901581
10
-74.630462863257975
20
44.934349355901553
10
-49.630462863258316
20
44.934349355901553
0
CIRCLE
5
120
100
AcDbEntity
8
0
100
AcDbCircle
10
-62.130462863258167
20
64.684349355901276
30
0
40
15.999999999999986
0
LWPOLYLINE
5
121
100
AcDbEntity
8
0
100
AcDbPolyline
90
12
70
1
43
0.0
10
-49.363384423872091
20
-6.1390115728999817
10
-39.363384423872162
20
-6.1390115728999817
10
-39.363384423872198
20
39.36098842709967
10
-49.363384423872162
20
39.36098842709967
10
-49.363384423872162
20
36.360988427099699
10
-74.36338442387185
20
36.360988427099699
10
-74.36338442387185
20
39.36098842709967
10
-84.363384423871764
20
39.36098842709967
10
-84.363384423871707
20
-6.1390115728999461
10
-74.363384423871807
20
-6.1390115728999461
10
-74.363384423871807
20
-3.1390115728999746
10
-49.363384423872091
20
-3.1390115728999746
0
LWPOLYLINE
5
122
100
AcDbEntity
8
0
100
AcDbPolyline
90
12
70
1
43
0.0
10
117.35933054162238
20
92.615914417335205
10
117.35933054162246
20
47.115914417335532
10
127.35933054162231
20
47.115914417335532
10
127.35933054162231
20
50.115914417335503
10
152.35933054162217
20
50.115914417335489
10
152.35933054162217
20
47.115914417335517
10
162.35933054162211
20
47.115914417335517
10
162.35933054162211
20
92.615914417335148
10
152.35933054162217
20
92.615914417335148
10
152.35933054162217
20
89.615914417335233
10
127.35933054162231
20
89.615914417335247
10
127.35933054162231
20
92.615914417335162
0
CIRCLE
5
123
100
AcDbEntity
8
0
100
AcDbCircle
10
139.8593305416222
20
69.865914417335361
30
0
40
13.025000000000002
0
LWPOLYLINE
5
124
100
AcDbEntity
8
0
100
AcDbPolyline
90
8
70
1
43
0.0
10
-186.04410324759499
20
-6.7391684635007643
42
0.41421356237309509
10
-181.0441032475951
20
-11.73916846350064
10
-100.14675729236517
20
-11.739168463500732
42
0.33891398039088239
10
-96.450210573951253
20
-6.9120565378539034
10
-96.450210573951139
20
34.100924518959573
42
0.3389139803908916
10
-100.14675729236529
20
38.928036444606526
10
-181.0441032475951
20
38.928036444606477
42
0.41421356237309509
10
-186.04410324759493
20
33.928036444606647
0
CIRCLE
5
125
100
AcDbEntity
8
0
100
AcDbCircle
10
-179.86045378449825
20
-3.9402911015830888
30
0
40
1.4999999999999991
0
LWPOLYLINE
5
126
100
AcDbEntity
8
0
100
AcDbPolyline
90
4
70
1
43
0.0
10
-140.87847622257061
20
5.1606945838741325
10
-140.87847622257058
20
22.160694583873806
10
-137.87847622257067
20
22.160694583873806
10
-137.87847622257067
20
5.1606945838741325
0
CIRCLE
5
127
100
AcDbEntity
8
0
100
AcDbCircle
10
-100.98983096257514
20
31.05970889841613
30
0
40
1.4999999999999969
0
CIRCLE
5
128
100
AcDbEntity
8
0
100
AcDbCircle
10
-179.73543449024592
20
31.059708898416165
30
0
40
1.5000000000000013
0
CIRCLE
5
129
100
AcDbEntity
8
0
100
AcDbCircle
10
-100.98983096257516
20
-3.9402911015831599
30
0
40
1.4999999999999969
0
CIRCLE
5
130
100
AcDbEntity
8
0
100
AcDbCircle
10
-160.32488087090442
20
13.585249703033373
30
0
40
2
0
CIRCLE
5
131
100
AcDbEntity
8
0
100
AcDbCircle
10
-61.863384423871963
20
16.610988427099755
30
0
40
2.4999999999999987
0
LWPOLYLINE
5
132
100
AcDbEntity
8
0
100
AcDbPolyline
90
4
70
1
43
0.0
10
61.597383944849327
20
78.318640908960191
10
51.497383944848814
20
78.318640908960191
10
51.497383944848849
20
81.418640908960143
10
61.597383944849327
20
81.418640908960143
0
LWPOLYLINE
5
133
100
AcDbEntity
8
0
100
AcDbPolyline
90
4
70
1
43
0.0
10
96.597383944848445
20
78.318640908960219
10
86.497383944849133
20
78.318640908960219
10
86.497383944849133
20
81.418640908960157
10
96.597383944848445
20
81.418640908960157
0
LWPOLYLINE
5
134
100
AcDbEntity
8
0
100
AcDbPolyline
90
4
70
1
43
0.0
10
86.497383944849133
20
64.418640908960313
10
96.597383944848445
20
64.418640908960313
10
96.597383944848445
20
58.318640908960433
10
86.497383944849133
20
58.318640908960361
0
LWPOLYLINE
5
135
100
AcDbEntity
8
0
100
AcDbPolyline
90
4
70
1
43
0.0
10
61.597383944849327
20
58.318640908960404
10
51.497383944848814
20
58.318640908960397
10
51.497383944848849
20
64.418640908960327
10
61.597383944849327
20
64.418640908960327
0
LWPOLYLINE
5
136
100
AcDbEntity
8
0
100
AcDbPolyline
90
4
70
1
43
0.0
10
61.597383944849433
20
-2.6813590910391127
10
51.497383944849453
20
-2.6813590910391127
10
51.497383944849418
20
0.41864090896083894
10
61.597383944849398
20
0.41864090896083894
0
LWPOLYLINE
5
137
100
AcDbEntity
8
0
100
AcDbPolyline
90
4
70
1
43
0.0
10
96.597383944848502
20
-2.6813590910391127
10
86.497383944849204
20
-2.6813590910391127
10
86.497383944849162
20
0.41864090896085671
10
96.597383944848474
20
0.41864090896083894
0
LWPOLYLINE
5
138
100
AcDbEntity
8
0
100
AcDbPolyline
90
4
70
1
43
0.0
10
-5.4977745058581462
20
49.26420795178727
10
-15.597774505858659
20
49.26420795178727
10
-15.597774505858659
20
52.364207951787208
10
-5.4977745058581462
20
52.364207951787208
0
LWPOLYLINE
5
139
100
AcDbEntity
8
0
100
AcDbPolyline
90
4
70
1
43
0.0
10
29.502225494141072
20
49.264207951787277
10
19.402225494141661
20
49.264207951787284
10
19.402225494141661
20
52.364207951787229
10
29.502225494141072
20
52.364207951787229
0
LWPOLYLINE
5
140
100
AcDbEntity
8
0
100
AcDbPolyline
90
4
70
1
43
0.0
10
29.502225494141072
20
66.264207951787171
10
19.402225494141696
20
66.264207951787171
10
19.402225494141696
20
72.364207951787108
10
29.502225494141072
20
72.364207951787108
0
LWPOLYLINE
5
141
100
AcDbEntity
8
0
100
AcDbPolyline
90
4
70
1
43
0.0
10
-5.4977745058581817
20
72.364207951787094
10
-5.4977745058581817
20
66.264207951787157
10
-15.597774505858641
20
66.264207951787157
10
-15.597774505858641
20
72.364207951787094
0
LWPOLYLINE
5
142
100
AcDbEntity
8
0
100
AcDbPolyline
90
4
70
1
43
0.0
10
29.502225494141108
20
130.2642079517868
10
19.402225494141732
20
130.2642079517868
10
19.402225494141732
20
133.36420795178674
10
29.502225494141108
20
133.36420795178674
0
LWPOLYLINE
5
143
100
AcDbEntity
8
0
100
AcDbPolyline
90
4
70
1
43
0.0
10
-5.497774505858164
20
130.2642079517868
10
-15.597774505858055
20
130.2642079517868
10
-15.597774505858055
20
133.36420795178674
10
-5.497774505858164
20
133.36420795178674
0
LWPOLYLINE
5
144
100
AcDbEntity
8
0
100
AcDbPolyline
90
10
70
1
43
0.0
10
-97.344560174946537
20
75.161630000358457
10
-97.344560174946508
20
87.284692346530989
42
0.41421356237309509
10
-102.34456017494651
20
92.284692346530989
10
-183.2419061301778
20
92.28469234653106
42
0.3389139803908961
10
-186.93845284859202
20
87.457580420884113
10
-186.93845284859205
20
46.444599364069816
42
0.33891398039087711
10
-183.24190613017808
20
41.617487438422877
10
-102.34456017494654
20
41.617487438422827
42
0.41421356237309509
10
-97.344560174946537
20
46.617487438422827
10
-97.344560174946537
20
59.161630000358514
0
LINE
5
145
100
AcDbEntity
8
0
100
AcDbLine
10
-137.51018719997182
20
75.384829299155868
30
0
11
-149.51018719997182
21
75.384829299155868
31
0
0
LINE
5
146
100
AcDbEntity
8
0
100
AcDbLine
10
-149.51018719997182
20
64.057360030436172
30
0
11
-149.51018719997182
21
58.384829299155868
31
0
0
LINE
5
147
100
AcDbEntity
8
0
100
AcDbLine
10
-137.51018719997182
20
62.057360030436186
30
0
11
-129.11728972604209
21
62.057360030436186
31
0
0
LINE
5
148
100
AcDbEntity
8
0
100
AcDbLine
10
-129.27373160283167
20
72.057360030436186
30
0
11
-137.51018719997182
21
72.057360030436186
31
0
0
LINE
5
149
100
AcDbEntity
8
0
100
AcDbLine
10
-161.01358570702044
20
62.638636013399633
30
0
11
-157.01358570702044
21
62.638636013399633
31
0
0
LINE
5
150
100
AcDbEntity
8
0
100
AcDbLine
10
-157.01358570702041
20
70.0573600304362
30
0
11
-157.01358570702041
21
71.263543771554254
31
0
0
LINE
5
151
100
AcDbEntity
8
0
100
AcDbLine
10
-137.51018719997182
20
72.057360030436186
30
0
11
-137.51018719997182
21
75.384829299155868
31
0
0
LINE
5
152
100
AcDbEntity
8
0
100
AcDbLine
10
-157.01358570702041
20
64.057360030436172
30
0
11
-149.51018719997182
21
64.057360030436172
31
0
0
CIRCLE
5
153
100
AcDbEntity
8
0
100
AcDbCircle
10
-103.52820963804339
20
84.485814984613341
30
0
40
1.4999999999999991
0
LINE
5
154
100
AcDbEntity
8
0
100
AcDbLine
10
-157.01358570702041
20
71.263543771554254
30
0
11
-161.01358570702044
21
71.263543771554254
31
0
0
LINE
5
155
100
AcDbEntity
8
0
100
AcDbLine
10
-149.51018719997182
20
75.384829299155868
30
0
11
-149.51018719997182
21
70.0573600304362
31
0
0
CIRCLE
5
156
100
AcDbEntity
8
0
100
AcDbCircle
10
-103.65322893229573
20
49.485814984613356
30
0
40
1.5000000000000013
0
LINE
5
157
100
AcDbEntity
8
0
100
AcDbLine
10
-157.01358570702044
20
62.638636013399633
30
0
11
-157.01358570702041
21
64.057360030436172
31
0
0
CIRCLE
5
158
100
AcDbEntity
8
0
100
AcDbCircle
10
-182.39883245996796
20
84.485814984613313
30
0
40
1.4999999999999969
0
LINE
5
159
100
AcDbEntity
8
0
100
AcDbLine
10
-149.51018719997182
20
70.0573600304362
30
0
11
-157.01358570702041
21
70.0573600304362
31
0
0
LINE
5
160
100
AcDbEntity
8
0
100
AcDbLine
10
-137.51018719997182
20
58.384829299155868
30
0
11
-137.51018719997182
21
62.057360030436186
31
0
0
LINE
5
161
100
AcDbEntity
8
0
100
AcDbLine
10
-149.51018719997182
20
58.384829299155868
30
0
11
-137.51018719997182
21
58.384829299155868
31
0
0
CIRCLE
5
162
100
AcDbEntity
8
0
100
AcDbCircle
10
-182.39883245996796
20
49.485814984613334
30
0
40
1.4999999999999969
0
LINE
5
163
100
AcDbEntity
8
0
100
AcDbLine
10
-161.01358570702044
20
62.638636013399633
30
0
11
-161.01358570702044
21
71.263543771554254
31
0
0
LINE
5
164
100
AcDbEntity
8
0
100
AcDbLine
10
-129.27373160283167
20
72.057360030436186
30
0
11
-129.27373160283167
21
62.057360030436186
31
0
0
LWPOLYLINE
5
165
100
AcDbEntity
8
0
100
AcDbPolyline
90
10
70
1
43
0.0
10
-204.64204351835031
20
139.82076099967034
42
-0.41421356237309509
10
-197.64204351835031
20
146.82076099967034
10
-196.64204351835028
20
146.82076099967034
42
-0.41421356237309509
10
-189.64204351835031
20
139.82076099967034
10
-189.64204351835031
20
124.58298242499126
10
-189.64204351835031
20
-8.4170175750087832
42
-0.41421356237309653
10
-196.64204351835028
20
-15.417017575008742
10
-197.64204351835025
20
-15.417017575008725
42
-0.41421356237309431
10
-204.64204351835031
20
-8.4170175750087495
10
-204.64204351835031
20
124.58298242499126
0
CIRCLE
5
166
100
AcDbEntity
8
0
100
AcDbCircle
10
-197.07492491156248
20
139.6914409286116
30
0
40
2
0
CIRCLE
5
167
100
AcDbEntity
8
0
100
AcDbCircle
10
-197.07492491156248
20
139.6914409286116
30
0
40
1.9999999999999996
0
LWPOLYLINE
5
168
100
AcDbEntity
8
0
100
AcDbPolyline
90
65
70
1
43
0.0
10
-198.45354489610401
20
85.581251672455522
10
-198.45354489610401
20
91.581251672455522
10
-199.20354489610401
20
91.581251672455522
10
-199.20354489610401
20
96.581251672455522
10
-199.68116639776656
20
96.581251672455522
10
-199.93116639776656
20
96.581251672455522
10
-200.18116639776656
20
96.581251672455522
10
-200.75874682741261
20
96.581251672455522
10
-200.75874682741261
20
91.581251672455522
10
-201.45354489610401
20
91.581251672455522
10
-201.45354489610401
20
85.581251672455522
10
-200.70354489610401
20
85.581251672455522
10
-200.70354489610401
20
76.581251672455522
10
-201.45354489610401
20
76.581251672455522
10
-201.45354489610401
20
70.581251672455522
10
-200.70354489610401
20
70.581251672455522
10
-200.70354489610401
20
61.581251672455522
10
-201.45354489610401
20
61.581251672455522
10
-201.45354489610401
20
55.581251672455529
10
-200.70354489610401
20
55.581251672455529
10
-200.70354489610401
20
46.581251672455522
10
-201.45354489610401
20
46.581251672455522
10
-201.45354489610401
20
40.581251672455529
10
-200.70354489610401
20
40.581251672455529
10
-200.70354489610401
20
31.581251672455526
10
-201.45354489610401
20
31.581251672455526
10
-201.45354489610401
20
25.581251672455529
10
-200.70354489610401
20
25.581251672455529
10
-200.70354489610401
20
16.581251672455526
10
-201.45354489610401
20
16.581251672455526
10
-201.45354489610401
20
10.581251672455529
10
-200.70354489610401
20
10.581251672455529
10
-200.70354489610401
20
1.5812516724555259
10
-201.45354489610401
20
1.5812516724555259
10
-201.45354489610401
20
-4.4187483275444706
10
-200.70354489610401
20
-4.4187483275444706
10
-200.70354489610401
20
-9.5407091844224201
10
-200.08114586175833
20
-9.540709184422429
10
-199.88114586175834
20
-9.540709184422429
10
-199.20354489610406
20
-9.5407091844224201
10
-199.20354489610401
20
-4.4187483275444706
10
-198.45354489610401
20
-4.4187483275444706
10
-198.45354489610401
20
1.5812516724555259
10
-199.20354489610401
20
1.5812516724555259
10
-199.20354489610401
20
10.581251672455529
10
-198.45354489610401
20
10.581251672455529
10
-198.45354489610401
20
16.581251672455526
10
-199.20354489610401
20
16.581251672455526
10
-199.20354489610401
20
25.581251672455529
10
-198.45354489610401
20
25.581251672455529
10
-198.45354489610401
20
31.581251672455526
10
-199.20354489610401
20
31.581251672455526
10
-199.20354489610401
20
40.581251672455529
10
-198.45354489610401
20
40.581251672455529
10
-198.45354489610401
20
46.581251672455522
10
-199.20354489610401
20
46.581251672455522
10
-199.20354489610401
20
55.581251672455529
10
-198.45354489610401
20
55.581251672455529
10
-198.45354489610401
20
61.581251672455522
10
-199.20354489610401
20
61.581251672455522
10
-199.20354489610401
20
70.581251672455522
10
-198.45354489610401
20
70.581251672455522
10
-198.45354489610401
20
76.581251672455522
10
-199.20354489610401
20
76.581251672455522
10
-199.20354489610401
20
85.581251672455522
0
LINE
5
169
100
AcDbEntity
8
0
100
AcDbLine
10
-200.18116639776656
20
146.34401593897977
30
0
11
-200.18116639776656
21
96.581251672455522
31
0
0
LINE
5
170
100
AcDbEntity
8
0
100
AcDbLine
10
-199.93116639776656
20
146.43588884748499
30
0
11
-199.93116639776656
21
96.581251672455522
31
0
0
LINE
5
171
100
AcDbEntity
8
0
100
AcDbLine
10
-199.68116639776656
20
146.5171763006087
30
0
11
-199.68116639776656
21
96.581251672455522
31
0
0
LINE
5
172
100
AcDbEntity
8
0
100
AcDbLine
10
-200.18116639776656
20
-9.540709184422429
30
0
11
-200.18116639776656
21
-14.940272514318167
31
0
0
LINE
5
173
100
AcDbEntity
8
0
100
AcDbLine
10
-199.93116639776656
20
-9.540709184422429
30
0
11
-199.93116639776656
21
-15.032145422823406
31
0
0
LINE
5
174
100
AcDbEntity
8
0
100
AcDbLine
10
-199.68116639776656
20
-9.540709184422429
30
0
11
-199.68116639776656
21
-15.113432875947082
31
0
0
LINE
5
175
100
AcDbEntity
8
0
100
AcDbLine
10
-193.88116639776658
20
146.25329996379932
30
0
11
-193.88116639776658
21
-14.849556539137723
31
0
0
LINE
5
176
100
AcDbEntity
8
0
100
AcDbLine
10
-193.63116639776655
20
146.14014538145514
30
0
11
-193.63116639776655
21
-14.736401956793541
31
0
0
LINE
5
177
100
AcDbEntity
8
0
100
AcDbLine
10
-193.38116639776658
20
146.01484530685036
30
0
11
-193.38116639776658
21
-14.611101882188757
31
0
0
CIRCLE
5
178
100
AcDbEntity
8
0
100
AcDbCircle
10
-123.06422893229573
20
66.959814984613345
30
0
40
1.9999999999999982
0
ENDSEC
0
SECTION
2
OBJECTS
0
DICTIONARY
5
C
100
AcDbDictionary
3
ACAD_GROUP
350
D
3
ACAD_MLINESTYLE
350
17
0
DICTIONARY
5
D
100
AcDbDictionary
0
DICTIONARY
5
1A
330
C
100
AcDbDictionary
0
DICTIONARY
5
17
100
AcDbDictionary
0
ENDSEC
0
EOF
